# Made in Blockbench 4.1.5
mtllib pillar_nw.mtl

o top
v 0.4443099201925078 2.042125011632446 0.3890968924909433
v 0.46238861280356885 1.871482692207126 -0.08053526110868159
v 0.5408320138266289 1.7639861197243785 0.4938751929573954
v 0.5589107064376899 1.593343800299058 0.0242430393577705
v -0.012819640072071758 1.7203654653598321 -0.04391968861739426
v -0.030898332683132745 1.8910077847851523 0.42571246498223064
v 0.08370245356204939 1.442226573451764 0.06085861184905783
v 0.06562376095098835 1.6128688928770845 0.5304907654486828
vt 0 1
vt 0.5 1
vt 0.5 0.6875
vt 0 0.6875
vt 0 1
vt 0.5 1
vt 0.5 0.6875
vt 0 0.6875
vt 0 1
vt 0.5 1
vt 0.5 0.6875
vt 0 0.6875
vt 0 1
vt 0.5 1
vt 0.5 0.6875
vt 0 0.6875
vt 0 1
vt 0.5 1
vt 0.5 0.5
vt 0 0.5
vt 0 1
vt 0.5 1
vt 0.5 0.5
vt 0 0.5
vn 0.03615738522212207 -0.34128463885064075 -0.9392643071992498
vn 0.9504165057512813 0.3022344536945878 -0.07323114498257464
vn -0.03615738522212207 0.34128463885064075 0.9392643071992498
vn -0.9504165057512813 -0.3022344536945878 0.07323114498257464
vn -0.30887069962918756 0.890044454105817 -0.3352905614926467
vn 0.30887069962918756 -0.890044454105817 0.3352905614926467
usemtl m_0
f 4/4/1 7/3/1 5/2/1 2/1/1
f 3/8/2 4/7/2 2/6/2 1/5/2
f 8/12/3 3/11/3 1/10/3 6/9/3
f 7/16/4 8/15/4 6/14/4 5/13/4
f 6/20/5 1/19/5 2/18/5 5/17/5
f 7/24/6 4/23/6 3/22/6 8/21/6
o base
v 1 0.5 1
v 1 0.5 0
v 1 0 1
v 1 0 0
v 0 0.5 0
v 0 0.5 1
v 0 0 0
v 0 0 1
vt 0 1
vt 1 1
vt 1 0.5
vt 0 0.5
vt 0 1
vt 1 1
vt 1 0.5
vt 0 0.5
vt 0 1
vt 1 1
vt 1 0.5
vt 0 0.5
vt 0 1
vt 1 1
vt 1 0.5
vt 0 0.5
vt 0 1
vt 1 1
vt 1 0
vt 0 0
vt 0 1
vt 1 1
vt 1 0
vt 0 0
vn 0 0 -1
vn 1 0 0
vn 0 0 1
vn -1 0 0
vn 0 1 0
vn 0 -1 0
usemtl m_1
f 12/28/7 15/27/7 13/26/7 10/25/7
f 11/32/8 12/31/8 10/30/8 9/29/8
f 16/36/9 11/35/9 9/34/9 14/33/9
f 15/40/10 16/39/10 14/38/10 13/37/10
f 14/44/11 9/43/11 10/42/11 13/41/11
f 15/48/12 12/47/12 11/46/12 16/45/12
o second
v 0.7663719494760067 1.2735354914631882 0.7321976885959405
v 0.7638813845550021 1.1401340847688508 -0.005838802221652006
v 0.8813431519392689 0.48196888278574207 0.874886779387908
v 0.8788525870182644 0.3485674760914047 0.13685028857031561
v 0.021432193726362958 1.0361370800095542 0.015464297059762433
v 0.023922758647367537 1.1695384867038916 0.753500787877355
v 0.13640339618962521 0.24457047133210819 0.1581533878517301
v 0.1388939611106298 0.3779718780264455 0.8961898786693225
vt 0 1
vt 0.75 1
vt 0.75 0.1875
vt 0 0.1875
vt 0 1
vt 0.75 1
vt 0.75 0.1875
vt 0 0.1875
vt 0 1
vt 0.75 1
vt 0.75 0.1875
vt 0 0.1875
vt 0 1
vt 0.75 1
vt 0.75 0.1875
vt 0 0.1875
vt 0 1
vt 0.75 1
vt 0.75 0.25
vt 0 0.25
vt 0 1
vt 0.75 1
vt 0.75 0.25
vt 0 0.25
vn -0.0033207532280061652 -0.1778685422591165 -0.9840486544234567
vn 0.9899322544381857 0.13866267301239554 -0.028404132375219358
vn 0.0033207532280061652 0.1778685422591165 0.9840486544234567
vn -0.9899322544381857 -0.13866267301239554 0.028404132375219358
vn -0.14150301841632276 0.9742358260645492 -0.175617342513191
vn 0.14150301841632276 -0.9742358260645492 0.175617342513191
usemtl m_0
f 20/52/13 23/51/13 21/50/13 18/49/13
f 19/56/14 20/55/14 18/54/14 17/53/14
f 24/60/15 19/59/15 17/58/15 22/57/15
f 23/64/16 24/63/16 22/62/16 21/61/16
f 22/68/17 17/67/17 18/66/17 21/65/17
f 23/72/18 20/71/18 19/70/18 24/69/18
o third
v 0.5804902222249738 1.8021979018043646 0.5310593475482478
v 0.5884680976062084 1.6388138218686659 -0.07215454148943556
v 0.7223103188827007 1.2151467508663383 0.6919413116285376
v 0.7302881942639354 1.0517626709306394 0.0887274225908542
v -0.020176637595201607 1.4998836645740603 -0.042574181354682494
v -0.02815451297643623 1.663267744509759 0.5606397076830009
v 0.12164345906252538 0.9128325136360338 0.11830778272560721
v 0.1136655836812907 1.0762165935717327 0.7215216717632906
vt 0 1
vt 0.625 1
vt 0.625 0.375
vt 0 0.375
vt 0 1
vt 0.625 1
vt 0.625 0.375
vt 0 0.375
vt 0 1
vt 0.625 1
vt 0.625 0.375
vt 0 0.375
vt 0 1
vt 0.625 1
vt 0.625 0.375
vt 0 0.375
vt 0 1
vt 0.625 1
vt 0.625 0.375
vt 0 0.375
vt 0 1
vt 0.625 1
vt 0.625 0.375
vt 0 0.375
vn 0.012764600609975443 -0.26141452789711805 -0.9651422224602935
vn 0.9738315763222561 0.2222882516713689 -0.047328576215604864
vn -0.012764600609975443 0.26141452789711805 0.9651422224602935
vn -0.9738315763222561 -0.2222882516713689 0.047328576215604864
vn -0.22691215465236317 0.9392818415008423 -0.2574111425284637
vn 0.22691215465236317 -0.9392818415008423 0.2574111425284637
usemtl m_0
f 28/76/19 31/75/19 29/74/19 26/73/19
f 27/80/20 28/79/20 26/78/20 25/77/20
f 32/84/21 27/83/21 25/82/21 30/81/21
f 31/88/22 32/87/22 30/86/22 29/85/22
f 30/92/23 25/91/23 26/90/23 29/89/23
f 31/96/24 28/95/24 27/94/24 32/93/24