# Made in Blockbench 4.1.5
mtllib pillar_sw.mtl

o base
v 1.0022809612057704 0.5 -0.00030061102884804125
v 0.00228096120577026 0.5 -0.0003006110288482633
v 1.0022809612057704 0 -0.00030061102884804125
v 0.00228096120577026 0 -0.0003006110288482633
v 0.002280961205770038 0.5 0.9996993889711517
v 1.00228096120577 0.5 0.999699388971152
v 0.002280961205770038 0 0.9996993889711517
v 1.00228096120577 0 0.999699388971152
vt 0 1
vt 1 1
vt 1 0.5
vt 0 0.5
vt 0 1
vt 1 1
vt 1 0.5
vt 0 0.5
vt 0 1
vt 1 1
vt 1 0.5
vt 0 0.5
vt 0 1
vt 1 1
vt 1 0.5
vt 0 0.5
vt 0 1
vt 1 1
vt 1 0
vt 0 0
vt 0 1
vt 1 1
vt 1 0
vt 0 0
vn -1 0 -2.220446049250313e-16
vn 2.220446049250313e-16 0 -1
vn 1 0 2.220446049250313e-16
vn -2.220446049250313e-16 0 1
vn 0 1 0
vn 0 -1 0
usemtl m_1
f 4/4/1 7/3/1 5/2/1 2/1/1
f 3/8/2 4/7/2 2/6/2 1/5/2
f 8/12/3 3/11/3 1/10/3 6/9/3
f 7/16/4 8/15/4 6/14/4 5/13/4
f 6/20/5 1/19/5 2/18/5 5/17/5
f 7/24/6 4/23/6 3/22/6 8/21/6
o second
v 0.7344786498017106 1.2735354914631882 0.23332743949514517
v -0.0035578410158818574 1.1401340847688508 0.2358180044161496
v 0.8771677405936783 0.48196888278574207 0.11835623703188292
v 0.13913124977608582 0.3485674760914047 0.12084680195288738
v 0.01774525826553247 1.0361370800095542 0.9782671952447888
v 0.7557817490831249 1.1695384867038916 0.9757766303237844
v 0.1604343490575002 0.24457047133210819 0.8632959927815266
v 0.8984708398750927 0.3779718780264455 0.8608054278605222
vt 0 1
vt 0.75 1
vt 0.75 0.1875
vt 0 0.1875
vt 0 1
vt 0.75 1
vt 0.75 0.1875
vt 0 0.1875
vt 0 1
vt 0.75 1
vt 0.75 0.1875
vt 0 0.1875
vt 0 1
vt 0.75 1
vt 0.75 0.1875
vt 0 0.1875
vt 0 1
vt 0.75 1
vt 0.75 0.25
vt 0 0.25
vt 0 1
vt 0.75 1
vt 0.75 0.25
vt 0 0.25
vn -0.9840486544234567 -0.1778685422591165 0.00332075322800595
vn -0.02840413237521914 0.13866267301239554 -0.9899322544381857
vn 0.9840486544234567 0.1778685422591165 -0.00332075322800595
vn 0.02840413237521914 -0.13866267301239554 0.9899322544381857
vn -0.17561734251319103 0.9742358260645492 0.14150301841632273
vn 0.17561734251319103 -0.9742358260645492 -0.14150301841632273
usemtl m_0
f 12/28/7 15/27/7 13/26/7 10/25/7
f 11/32/8 12/31/8 10/30/8 9/29/8
f 16/36/9 11/35/9 9/34/9 14/33/9
f 15/40/10 16/39/10 14/38/10 13/37/10
f 14/44/11 9/43/11 10/42/11 13/41/11
f 15/48/12 12/47/12 11/46/12 16/45/12
o third
v 0.533340308754018 1.8021979018043646 0.41920916674617803
v -0.06987358028366542 1.6388138218686659 0.4112312913649433
v 0.6942222728343078 1.2151467508663383 0.27738907008845115
v 0.09100838379662435 1.0517626709306394 0.26941119470721636
v -0.04029322014891257 1.4998836645740603 1.0198760265663531
v 0.5629206688887709 1.663267744509759 1.027853901947588
v 0.12058874393137725 0.9128325136360338 0.8780559299086264
v 0.7238026329690607 1.0762165935717327 0.8860338052898612
vt 0 1
vt 0.625 1
vt 0.625 0.375
vt 0 0.375
vt 0 1
vt 0.625 1
vt 0.625 0.375
vt 0 0.375
vt 0 1
vt 0.625 1
vt 0.625 0.375
vt 0 0.375
vt 0 1
vt 0.625 1
vt 0.625 0.375
vt 0 0.375
vt 0 1
vt 0.625 1
vt 0.625 0.375
vt 0 0.375
vt 0 1
vt 0.625 1
vt 0.625 0.375
vt 0 0.375
vn -0.9651422224602937 -0.2614145278971181 -0.012764600609975661
vn -0.04732857621560463 0.22228825167136884 -0.973831576322256
vn 0.9651422224602937 0.2614145278971181 0.012764600609975661
vn 0.04732857621560463 -0.22228825167136884 0.973831576322256
vn -0.25741114252846375 0.9392818415008423 0.2269121546523631
vn 0.25741114252846375 -0.9392818415008423 -0.2269121546523631
usemtl m_0
f 20/52/13 23/51/13 21/50/13 18/49/13
f 19/56/14 20/55/14 18/54/14 17/53/14
f 24/60/15 19/59/15 17/58/15 22/57/15
f 23/64/16 24/63/16 22/62/16 21/61/16
f 22/68/17 17/67/17 18/66/17 21/65/17
f 23/72/18 20/71/18 19/70/18 24/69/18
o top
v 0.39137785369671346 2.042125011632446 0.555389468778644
v -0.07825429990291141 1.871482692207126 0.5373107761675828
v 0.4961561541631656 1.7639861197243785 0.45886737514452286
v 0.02652400056354068 1.593343800299058 0.44078868253346176
v -0.04163872741162419 1.7203654653598321 1.0125190290432236
v 0.42799342618800074 1.8910077847851523 1.0305977216542845
v 0.06313957305482792 1.442226573451764 0.9159969354091024
v 0.5327717266544528 1.6128688928770845 0.9340756280201635
vt 0 1
vt 0.5 1
vt 0.5 0.6875
vt 0 0.6875
vt 0 1
vt 0.5 1
vt 0.5 0.6875
vt 0 0.6875
vt 0 1
vt 0.5 1
vt 0.5 0.6875
vt 0 0.6875
vt 0 1
vt 0.5 1
vt 0.5 0.6875
vt 0 0.6875
vt 0 1
vt 0.5 1
vt 0.5 0.5
vt 0 0.5
vt 0 1
vt 0.5 1
vt 0.5 0.5
vt 0 0.5
vn -0.9392643071992498 -0.3412846388506407 -0.036157385222122265
vn -0.07323114498257445 0.3022344536945878 -0.9504165057512813
vn 0.9392643071992498 0.3412846388506407 0.036157385222122265
vn 0.07323114498257445 -0.3022344536945878 0.9504165057512813
vn -0.3352905614926468 0.890044454105817 0.3088706996291875
vn 0.3352905614926468 -0.890044454105817 -0.3088706996291875
usemtl m_0
f 28/76/19 31/75/19 29/74/19 26/73/19
f 27/80/20 28/79/20 26/78/20 25/77/20
f 32/84/21 27/83/21 25/82/21 30/81/21
f 31/88/22 32/87/22 30/86/22 29/85/22
f 30/92/23 25/91/23 26/90/23 29/89/23
f 31/96/24 28/95/24 27/94/24 32/93/24