# Made in Blockbench 4.1.5
mtllib pillar_ne.mtl

o base
v -0.0003006110288481523 0.5000000000000001 0.99771903879423
v 0.9996993889711518 0.4999999999999999 0.9977190387942297
v -0.0003006110288482633 1.1780364557175267e-16 0.99771903879423
v 0.9996993889711517 -1.1780364557175272e-16 0.9977190387942297
v 0.9996993889711516 0.4999999999999999 -0.00228096120577026
v -0.0003006110288483743 0.5000000000000001 -0.002280961205770038
v 0.9996993889711515 -1.1780364557175267e-16 -0.00228096120577026
v -0.00030061102884848534 1.1780364557175272e-16 -0.002280961205770038
vt 0 1
vt 1 1
vt 1 0.5
vt 0 0.5
vt 0 1
vt 1 1
vt 1 0.5
vt 0 0.5
vt 0 1
vt 1 1
vt 1 0.5
vt 0 0.5
vt 0 1
vt 1 1
vt 1 0.5
vt 0 0.5
vt 0 1
vt 1 1
vt 1 0
vt 0 0
vt 0 1
vt 1 1
vt 1 0
vt 0 0
vn 1 -2.356072911435054e-16 -2.220446049250313e-16
vn 2.220446049250313e-16 -5.231532787941648e-32 1
vn -1 2.356072911435054e-16 2.220446049250313e-16
vn -2.220446049250313e-16 5.231532787941648e-32 -1
vn 2.356072911435054e-16 1 -3.0115213031032457e-33
vn -2.356072911435054e-16 -1 3.0115213031032457e-33
usemtl m_1
f 4/4/1 7/3/1 5/2/1 2/1/1
f 3/8/2 4/7/2 2/6/2 1/5/2
f 8/12/3 3/11/3 1/10/3 6/9/3
f 7/16/4 8/15/4 6/14/4 5/13/4
f 6/20/5 1/19/5 2/18/5 5/17/5
f 7/24/6 4/23/6 3/22/6 8/21/6
o second
v 0.2675017003752116 1.2735354914631882 0.7640909882702367
v 1.005538191192804 1.1401340847688508 0.7616004233492318
v 0.1248126095832438 0.4819688827857421 0.879062190733499
v 0.8628491004008363 0.3485674760914046 0.8765716258124941
v 0.9842350919113894 1.0361370800095542 0.019151232520592698
v 0.24619860109379688 1.1695384867038916 0.0216417974415975
v 0.8415460011194216 0.24457047133210807 0.13412243498385495
v 0.10350951030182909 0.37797187802644555 0.13661299990485976
vt 0 1
vt 0.75 1
vt 0.75 0.1875
vt 0 0.1875
vt 0 1
vt 0.75 1
vt 0.75 0.1875
vt 0 0.1875
vt 0 1
vt 0.75 1
vt 0.75 0.1875
vt 0 0.1875
vt 0 1
vt 0.75 1
vt 0.75 0.1875
vt 0 0.1875
vt 0 1
vt 0.75 1
vt 0.75 0.25
vt 0 0.25
vt 0 1
vt 0.75 1
vt 0.75 0.25
vt 0 0.25
vn 0.9840486544234567 -0.17786854225911672 -0.0033207532280063873
vn 0.0284041323752196 0.1386626730123955 0.9899322544381856
vn -0.9840486544234567 0.17786854225911672 0.0033207532280063873
vn -0.0284041323752196 -0.1386626730123955 -0.9899322544381856
vn 0.17561734251319117 0.9742358260645492 -0.14150301841632282
vn -0.17561734251319117 -0.9742358260645492 0.14150301841632282
usemtl m_0
f 12/28/7 15/27/7 13/26/7 10/25/7
f 11/32/8 12/31/8 10/30/8 9/29/8
f 16/36/9 11/35/9 9/34/9 14/33/9
f 15/40/10 16/39/10 14/38/10 13/37/10
f 14/44/11 9/43/11 10/42/11 13/41/11
f 15/48/12 12/47/12 11/46/12 16/45/12
o third
v 0.4686400414229043 1.8021979018043646 0.5782092610192037
v 1.0718539304605876 1.6388138218686656 0.5861871364004382
v 0.3077580773426144 1.2151467508663383 0.7200293576769307
v 0.9109719663802978 1.0517626709306394 0.7280072330581652
v 1.0422735703258343 1.49988366457406 -0.022457598800971867
v 0.43905968128815104 1.663267744509759 -0.03043547418220638
v 0.8813916062455445 0.9128325136360338 0.11936249785675512
v 0.2781777172078612 1.0762165935717327 0.11138462247552061
vt 0 1
vt 0.625 1
vt 0.625 0.375
vt 0 0.375
vt 0 1
vt 0.625 1
vt 0.625 0.375
vt 0 0.375
vt 0 1
vt 0.625 1
vt 0.625 0.375
vt 0 0.375
vt 0 1
vt 0.625 1
vt 0.625 0.375
vt 0 0.375
vt 0 1
vt 0.625 1
vt 0.625 0.375
vt 0 0.375
vt 0 1
vt 0.625 1
vt 0.625 0.375
vt 0 0.375
vn 0.9651422224602936 -0.2614145278971183 0.012764600609975231
vn 0.04732857621560513 0.22228825167136887 0.973831576322256
vn -0.9651422224602936 0.2614145278971183 -0.012764600609975231
vn -0.04732857621560513 -0.22228825167136887 -0.973831576322256
vn 0.25741114252846387 0.9392818415008422 -0.2269121546523632
vn -0.25741114252846387 -0.9392818415008422 0.2269121546523632
usemtl m_0
f 20/52/13 23/51/13 21/50/13 18/49/13
f 19/56/14 20/55/14 18/54/14 17/53/14
f 24/60/15 19/59/15 17/58/15 22/57/15
f 23/64/16 24/63/16 22/62/16 21/61/16
f 22/68/17 17/67/17 18/66/17 21/65/17
f 23/72/18 20/71/18 19/70/18 24/69/18
o top
v 0.6106024964802088 2.0421250116324465 0.44202895898673766
v 1.0802346500798337 1.871482692207126 0.46010765159779865
v 0.5058241960137566 1.7639861197243785 0.5385510526208588
v 0.9754563496133815 1.593343800299058 0.5566297452319198
v 1.043619077588546 1.720365465359832 -0.01510060127784199
v 0.5739869239889213 1.8910077847851525 -0.03317929388890298
v 0.938840777122094 1.442226573451764 0.08142149235627916
v 0.46920862352246917 1.6128688928770847 0.06334279974521823
vt 0 1
vt 0.5 1
vt 0.5 0.6875
vt 0 0.6875
vt 0 1
vt 0.5 1
vt 0.5 0.6875
vt 0 0.6875
vt 0 1
vt 0.5 1
vt 0.5 0.6875
vt 0 0.6875
vt 0 1
vt 0.5 1
vt 0.5 0.6875
vt 0 0.6875
vt 0 1
vt 0.5 1
vt 0.5 0.5
vt 0 0.5
vt 0 1
vt 0.5 1
vt 0.5 0.5
vt 0 0.5
vn 0.9392643071992499 -0.34128463885064103 0.036157385222121884
vn 0.07323114498257492 0.30223445369458773 0.9504165057512812
vn -0.9392643071992499 0.34128463885064103 -0.036157385222121884
vn -0.07323114498257492 -0.30223445369458773 -0.9504165057512812
vn 0.33529056149264685 0.8900444541058169 -0.3088706996291877
vn -0.33529056149264685 -0.8900444541058169 0.3088706996291877
usemtl m_0
f 28/76/19 31/75/19 29/74/19 26/73/19
f 27/80/20 28/79/20 26/78/20 25/77/20
f 32/84/21 27/83/21 25/82/21 30/81/21
f 31/88/22 32/87/22 30/86/22 29/85/22
f 30/92/23 25/91/23 26/90/23 29/89/23
f 31/96/24 28/95/24 27/94/24 32/93/24